<svg width="18" height="20" viewBox="0 0 18 20" fill="none" xmlns="http://www.w3.org/2000/svg">
<path d="M16.4309 2.98206C16.0507 2.98206 16.2996 2.97274 15.3745 3.02864C15.838 2.06161 15.7117 2.33695 15.9499 1.7824C16.0727 1.49644 15.9377 1.16622 15.6484 1.04487C15.3591 0.923473 15.025 1.05689 14.9022 1.34285L14.3565 2.61359C12.5575 1.33283 10.0615 1.58528 8.56198 3.22812C8.56198 3.22812 2.41632 8.56309 2.4027 8.57775C-0.234807 10.994 1.05149 15.3359 4.5573 15.9914V16.7931C4.5573 18.8918 9.26209 19.5884 11.8456 18.4712C12.7837 18.0655 13.3003 17.4695 13.3003 16.7931V14.925C13.3003 13.7523 11.8468 13.1276 10.665 12.8865L14.679 9.37965C16.2843 7.97531 16.5763 5.79259 15.6737 4.10708H16.4309C16.7452 4.10708 17 3.85526 17 3.54459C17 3.23392 16.7451 2.98206 16.4309 2.98206ZM2.13818 11.7462C2.13818 9.98394 3.58866 8.55025 5.37151 8.55025C7.562 8.55025 9.12427 10.6715 8.44731 12.7309C7.53476 12.7777 6.68352 12.9565 6.01194 13.2469C5.11361 13.6354 4.60215 14.1984 4.56036 14.8395C3.16896 14.4827 2.13818 13.2315 2.13818 11.7462ZM11.3894 17.4404C10.0519 18.0189 7.80631 18.0192 6.46816 17.4404C5.93437 17.2096 5.69542 16.9489 5.69542 16.793V16.4503C7.38644 17.3587 10.471 17.3589 12.1621 16.4503V16.793C12.1621 16.9489 11.9232 17.2096 11.3894 17.4404ZM12.1621 14.925C12.1621 15.0809 11.9231 15.3416 11.3893 15.5724C10.0519 16.1508 7.80628 16.1511 6.46813 15.5724C5.93433 15.3416 5.69539 15.0809 5.69539 14.925C5.69539 14.7691 5.93433 14.5084 6.46813 14.2776C7.80557 13.6992 10.0512 13.6989 11.3893 14.2776C11.9232 14.5084 12.1621 14.7691 12.1621 14.925ZM13.9279 8.53299C13.8931 8.56277 14.3704 8.14765 9.71735 12.2128C9.99389 9.68417 8.00866 7.47069 5.44944 7.42622C9.61599 3.8104 9.3536 4.04095 9.38875 4.00186C10.0039 3.31667 10.8748 2.92577 11.8074 2.92577C13.5902 2.92577 15.0407 4.35947 15.0407 6.12172C15.0407 7.0459 14.6351 7.9248 13.9279 8.53299Z" fill="white" stroke="#D5AF86" stroke-width="0.2"/>
<path d="M5.2793 11.121C5.66133 10.9424 5.81655 10.5074 5.62601 10.1493C5.43547 9.79129 4.97131 9.64578 4.58928 9.82437C4.20725 10.003 4.05203 10.438 4.24257 10.796C4.4331 11.154 4.89726 11.2995 5.2793 11.121Z" fill="white" stroke="#D5AF86" stroke-width="0.2"/>
<path d="M4.83386 13.7542C5.09475 13.6322 5.20074 13.3352 5.07063 13.0907C4.94053 12.8462 4.62358 12.7468 4.36269 12.8688C4.1018 12.9907 3.99581 13.2878 4.12592 13.5323C4.25603 13.7768 4.57297 13.8761 4.83386 13.7542Z" fill="white" stroke="#D5AF86" stroke-width="0.2"/>
<path d="M7.22717 12.1887C7.48806 12.0668 7.59405 11.7697 7.46395 11.5252C7.33384 11.2807 7.01689 11.1814 6.756 11.3033C6.49511 11.4253 6.38912 11.7223 6.51923 11.9668C6.64934 12.2113 6.96628 12.3107 7.22717 12.1887Z" fill="white" stroke="#D5AF86" stroke-width="0.2"/>
<path d="M13.0127 6.75806L10.3339 8.91265C10.0902 9.10872 10.0533 9.46302 10.2517 9.70397C10.4494 9.94416 10.8077 9.98195 11.0523 9.78525L13.7311 7.63066C13.9749 7.43459 14.0117 7.08029 13.8133 6.83934C13.615 6.59838 13.2566 6.56196 13.0127 6.75806Z" fill="white" stroke="#D5AF86" stroke-width="0.2"/>
<path d="M7.55506 14.4208C7.26657 14.425 7.0405 14.5413 7.0501 14.6805C7.05974 14.8198 7.30139 14.9292 7.58988 14.9249C7.87837 14.9207 8.10444 14.8044 8.09483 14.6651C8.08519 14.5259 7.84355 14.4165 7.55506 14.4208Z" fill="white" stroke="#D5AF86" stroke-width="0.2"/>
<path d="M9.99962 15.4968C10.4221 15.5057 10.7591 15.3548 10.7525 15.1599C10.7458 14.965 10.398 14.7998 9.97562 14.7909C9.55318 14.782 9.2161 14.9329 9.22275 15.1278C9.22937 15.3227 9.57719 15.4879 9.99962 15.4968Z" fill="white" stroke="#D5AF86" stroke-width="0.2"/>
</svg>
