<svg width="15" height="15" viewBox="0 0 15 15" fill="none" xmlns="http://www.w3.org/2000/svg">
<path d="M13.8168 1.18292C13.5732 0.939028 13.178 0.939028 12.9344 1.18292L0.891824 13.2255C0.648038 13.4692 0.648038 13.8641 0.891824 14.1078C1.01366 14.2298 1.17342 14.2907 1.33307 14.2907C1.49272 14.2907 1.65247 14.2298 1.77421 14.1078L13.8168 2.0652C14.0606 1.82152 14.0606 1.4266 13.8168 1.18292Z" fill="white" stroke="#D5AF86" stroke-width="0.3"/>
<path d="M3.66866 1.00439C2.03435 1.00439 0.70459 2.33426 0.70459 3.96856C0.70459 5.60287 2.03435 6.93263 3.66866 6.93263C5.30307 6.93263 6.63272 5.60277 6.63272 3.96846C6.63272 2.33415 5.30296 1.00439 3.66866 1.00439ZM3.66866 5.68452C2.72239 5.68452 1.9526 4.91462 1.9526 3.96846C1.9526 3.0223 2.72249 2.25241 3.66866 2.25241C4.61492 2.25241 5.38471 3.0223 5.38471 3.96846C5.38471 4.91462 4.61492 5.68452 3.66866 5.68452Z" fill="white" stroke="#D5AF86" stroke-width="0.3"/>
<path d="M11.0361 8.36206C9.40178 8.36206 8.07202 9.69182 8.07202 11.3261C8.07202 12.9604 9.40178 14.2902 11.0361 14.2902C12.6704 14.2902 14.0002 12.9605 14.0002 11.3261C14.0002 9.69171 12.6704 8.36206 11.0361 8.36206ZM11.0361 13.0421C10.0898 13.0421 9.32003 12.2722 9.32003 11.326C9.32003 10.3799 10.0899 9.60997 11.0361 9.60997C11.9823 9.60997 12.7521 10.3799 12.7521 11.326C12.7521 12.2722 11.9824 13.0421 11.0361 13.0421Z" fill="white" stroke="#D5AF86" stroke-width="0.3"/>
</svg>
