<svg width="16" height="16" viewBox="0 0 16 16" fill="none" xmlns="http://www.w3.org/2000/svg">
<path d="M13.1765 8.47059V4.5408L11.2941 2.18786V0H1.88235V2.18786L0 4.5408V16H13.8248C14.7648 16 15.5294 15.2353 15.5294 14.2954V8.47059H13.1765ZM14.5882 10.3529H11.7647V9.41177H14.5882V10.3529ZM12.2353 8.47059H10.8235V14.2954C10.8235 14.5698 10.8891 14.829 11.0047 15.0588H9.41176V4.87097L10.8235 3.10626L12.2353 4.87097V8.47059ZM8.71498 4.23529H1.44969L2.57911 2.82353H9.84439L8.71498 4.23529ZM8.47059 5.17647V12.7059H0.941176V5.17647H8.47059ZM2.82353 0.941177H10.3529V1.88235H2.82353V0.941177ZM0.941176 13.6471H8.47059V15.0588H0.941176V13.6471ZM13.8248 15.0588C13.5092 15.0588 12.8058 15.0588 12.5281 15.0588C12.1072 15.0588 11.7647 14.7164 11.7647 14.2954V11.2941H14.5883V14.2954C14.5882 14.7164 14.2458 15.0588 13.8248 15.0588Z" fill="white"/>
<path d="M4.70584 11.7646C5.74377 11.7646 6.58819 10.9202 6.58819 9.88224C6.58819 8.9416 5.3257 7.51647 4.70584 6.82471C4.08931 7.51274 2.82349 8.93919 2.82349 9.88224C2.82349 10.9202 3.66791 11.7646 4.70584 11.7646ZM4.70565 8.25818C5.20576 8.88529 5.64702 9.59073 5.64702 9.88224C5.64702 10.4012 5.2248 10.8234 4.70584 10.8234C4.18687 10.8234 3.76466 10.4012 3.76466 9.88224C3.76466 9.58232 4.20686 8.8819 4.70565 8.25818Z" fill="white"/>
</svg>
