<svg width="16" height="16" viewBox="0 0 16 16" fill="none" xmlns="http://www.w3.org/2000/svg">
<path d="M5.625 2.8125C6.71441 2.8125 13.1816 2.8125 14.125 2.8125C14.6419 2.8125 15.0625 2.39194 15.0625 1.875C15.0625 1.35806 14.6419 0.9375 14.125 0.9375H7.0625C6.80363 0.9375 6.59375 0.727625 6.59375 0.46875C6.59375 0.209875 6.80363 0 7.0625 0H14.125C15.1589 0 16 0.841125 16 1.875C16 2.90887 15.1589 3.75 14.125 3.75H13.1657C13.1364 4.06947 13.0773 4.38303 12.9895 4.6875H14.5938C14.8526 4.6875 15.0625 4.89738 15.0625 5.15625C15.0625 5.41512 14.8526 5.625 14.5938 5.625H12.6137C11.7616 7.25616 10.0195 8.4375 7.96875 8.4375H6.0145C5.28278 8.4375 4.6875 9.03278 4.6875 9.7645C4.6875 10.5702 4.97591 10.7674 7.60197 12.3177C7.90434 12.4962 8.23387 12.6908 8.59312 12.9045C8.90716 11.9799 9.78306 11.3125 10.8125 11.3125H11.75C12.0089 11.3125 12.2188 11.5224 12.2188 11.7812C12.2188 12.5471 11.8494 13.2283 11.2796 13.6562C11.8494 14.0842 12.2188 14.7654 12.2188 15.5312C12.2188 15.7901 12.0089 16 11.75 16H10.8125C9.68078 16 8.73391 15.1931 8.516 14.1248C8.4705 14.1248 8.42472 14.1248 8.37856 14.1248C5.96887 14.1248 3.10775 14.0217 1.40031 12.3165C0.471125 11.3886 0 10.0835 0 8.4375C0 5.33125 2.52894 2.8125 5.625 2.8125ZM12.2234 3.75H7.5C6.46613 3.75 5.625 4.59113 5.625 5.625C5.625 6.65887 6.46613 7.5 7.5 7.5H7.96875C10.1687 7.5 11.986 5.85644 12.2234 3.75ZM5.46762 7.56716C4.98459 7.06191 4.6875 6.3775 4.6875 5.625C4.6875 4.90791 4.95741 4.25278 5.40078 3.75547C3.47197 3.84678 1.84472 5.10922 1.21587 6.84591C1.6835 7.81809 2.66009 8.4375 3.75 8.4375C3.90406 8.4375 4.05762 8.42484 4.20859 8.40016C4.51647 7.99362 4.95819 7.694 5.46762 7.56716ZM4.85525 11.7138C4.55972 12.1003 4.19303 12.4241 3.77812 12.6688C4.83369 13.0318 6.05944 13.1419 7.20919 13.1745C7.18128 13.1581 7.15287 13.1413 7.12537 13.1251C6.07747 12.5064 5.35494 12.0798 4.85525 11.7138ZM11.2009 12.25H10.8125C10.2014 12.25 9.68003 12.6418 9.48656 13.1875H9.875C10.4861 13.1875 11.0075 12.7957 11.2009 12.25ZM10.8125 15.0625H11.2009C11.0075 14.5168 10.4861 14.1244 9.875 14.1244H9.48656C9.68003 14.67 10.2014 15.0625 10.8125 15.0625ZM2.06275 11.6532C2.24525 11.8355 2.44728 11.9959 2.66484 12.1375C3.26656 11.9617 3.79384 11.5872 4.16044 11.0769C3.86978 10.7086 3.75 10.3096 3.75 9.7645C3.75 9.63147 3.76219 9.50131 3.78431 9.3745C2.67325 9.38413 1.65244 8.91331 0.948438 8.12103C0.941406 8.22566 0.9375 8.33113 0.9375 8.4375C0.9375 9.84513 1.30556 10.897 2.06275 11.6532Z" fill="white"/>
<path d="M8.9375 5.625C8.67862 5.625 8.46875 5.41513 8.46875 5.15625C8.46875 4.89737 8.67862 4.6875 8.9375 4.6875C9.19638 4.6875 9.40625 4.89737 9.40625 5.15625C9.40625 5.41513 9.19638 5.625 8.9375 5.625Z" fill="white"/>
</svg>
