<svg width="16" height="16" viewBox="0 0 16 16" fill="none" xmlns="http://www.w3.org/2000/svg">
<path d="M13.4896 4.74438V1.76674L10.5104 0L8 1.48888L5.48962 0L2.51038 1.76674V4.74438L0 6.23326V9.76687L2.51038 11.2556V14.2333L5.4895 16L8 14.5112L10.5104 16L13.4895 14.2333V11.2556L16 9.76687V6.23326L13.4896 4.74438ZM12.5521 2.32285V4.74438L10.5105 5.95527L8.46875 4.74438V2.32272L10.5104 1.11196L12.5521 2.32285ZM8 10.4217L5.95837 9.21076V6.78924L8 5.57834L10.0416 6.78924V9.21089L8 10.4217ZM5.48962 1.11196L7.53125 2.32272V4.74438L5.48962 5.95527L3.448 4.74438V2.32285L5.48962 1.11196ZM0.9375 9.21089V6.78924L2.97925 5.57834L5.02087 6.78924V9.21089L2.97925 10.4217L0.9375 9.21089ZM3.44788 13.6773V11.2556L5.4895 10.0449L7.53125 11.2556V13.6773L5.48962 14.888L3.44788 13.6773ZM10.5104 14.888L8.46875 13.6773V11.2556L10.5104 10.0449L12.552 11.2556V13.6773L10.5104 14.888ZM15.0625 9.21089L13.0209 10.4217L10.9792 9.21089V6.78924L13.0209 5.57834L15.0625 6.78924V9.21089Z" fill="white"/>
</svg>
