<svg width="17" height="16" viewBox="0 0 17 16" fill="none" xmlns="http://www.w3.org/2000/svg">
<path d="M15.4389 5.99716C15.1604 5.62793 14.7928 5.32883 14.3779 5.12904C14.4002 4.98376 14.4114 4.83653 14.4114 4.6885C14.4114 3.09394 13.1141 1.79667 11.5196 1.79667C11.2525 1.79667 10.9859 1.83425 10.7295 1.90703C10.5633 1.44875 10.2821 1.03581 9.90894 0.7107C9.38298 0.25242 8.7087 0 8.01036 0C7.31202 0 6.63774 0.252389 6.11175 0.7107C5.73861 1.03584 5.45737 1.44872 5.29122 1.907C5.03476 1.83422 4.76813 1.79664 4.5011 1.79664C2.90654 1.79664 1.60927 3.09391 1.60927 4.68847C1.60927 4.83653 1.6205 4.98373 1.64278 5.12901C1.22793 5.3288 0.8603 5.6279 0.581783 5.99713C0.201198 6.50172 0 7.10325 0 7.73678C0 9.33135 1.29727 10.6286 2.89183 10.6286C3.27492 10.6286 3.65304 10.5511 4.00321 10.4054L4.99574 12.0033C5.38161 12.6245 5.58563 13.3395 5.58563 14.0708V16H10.4351V14.0708C10.4351 13.3395 10.6391 12.6245 11.025 12.0033L12.0175 10.4054C12.3677 10.5511 12.7458 10.6286 13.1289 10.6286C14.7235 10.6286 16.0207 9.33135 16.0207 7.73678C16.0207 7.10325 15.8195 6.50172 15.4389 5.99716ZM10.2276 11.5079C9.74923 12.278 9.4964 13.1642 9.4964 14.0707V15.0612H6.52431V14.0707C6.52431 13.1642 6.27145 12.278 5.79312 11.5079L4.79974 9.90869C5.06752 9.67288 5.28956 9.38964 5.45396 9.07589C5.60938 9.186 5.77478 9.2846 5.94769 9.37249L8.01036 13.3542L10.073 9.37252C10.2459 9.28463 10.4113 9.18603 10.5668 9.07592C10.7312 9.38967 10.9532 9.67294 11.221 9.90872L10.2276 11.5079ZM7.2189 9.78568C7.47623 9.82858 7.74091 9.85139 8.01036 9.85139C8.2798 9.85139 8.54445 9.82855 8.80182 9.78568L8.01036 11.3135L7.2189 9.78568ZM13.1289 9.68987C12.214 9.68987 11.4316 9.06791 11.2264 8.17742L11.0294 7.32306L10.4276 7.96067C9.86507 8.55678 8.9614 8.91265 8.01036 8.91265C7.05931 8.91265 6.15565 8.55678 5.59308 7.96067L4.9913 7.32306L4.79435 8.17742C4.58906 9.06791 3.80673 9.68987 2.89183 9.68987C1.81488 9.68987 0.938714 8.81374 0.938714 7.73678C0.938714 6.88268 1.5093 6.11384 2.32626 5.86712L2.7811 5.72975L2.63822 5.27667C2.57837 5.08686 2.54801 4.88895 2.54801 4.6885C2.54801 3.61154 3.42418 2.73538 4.50113 2.73538C4.81676 2.73538 5.11856 2.80885 5.39804 2.95373L5.98274 3.2568L6.07839 2.60521C6.21788 1.65517 7.04846 0.938745 8.01036 0.938745C8.97226 0.938745 9.80283 1.65517 9.94232 2.60521L10.038 3.2568L10.6227 2.95373C10.9022 2.80885 11.204 2.73538 11.5196 2.73538C12.5965 2.73538 13.4727 3.61154 13.4727 4.6885C13.4727 4.88895 13.4423 5.08683 13.3825 5.27667L13.2396 5.72975L13.6945 5.86712C14.5114 6.11384 15.082 6.88268 15.082 7.73678C15.082 8.81374 14.2058 9.68987 13.1289 9.68987Z" fill="white"/>
<path d="M11.0256 4.3274C10.3605 3.79496 9.52056 3.87463 9.427 3.88542L9.53492 4.81791C9.54021 4.81728 10.0766 4.77013 10.4389 5.06019C10.6497 5.229 10.7705 5.48418 10.8082 5.84042L11.7417 5.74166C11.6772 5.13206 11.4363 4.6562 11.0256 4.3274Z" fill="white"/>
<path d="M6.59879 3.88576C6.50736 3.87418 5.68558 3.78726 5.02056 4.3074C4.60174 4.63498 4.35242 5.11563 4.27954 5.73603L5.21184 5.84554C5.2691 5.35819 5.47818 5.05067 5.85107 4.90536C6.16438 4.78329 6.48057 4.81709 6.4837 4.8174L6.48051 4.81702L6.59879 3.88576Z" fill="white"/>
</svg>
