<svg width="16" height="16" viewBox="0 0 16 16" fill="none" xmlns="http://www.w3.org/2000/svg">
<path d="M14.8897 3.0329C14.1369 1.92919 13.1186 1.32131 12.0225 1.32131C11.937 1.32131 11.851 1.3256 11.7654 1.33323C11.5586 0.566019 10.8623 7.42131e-10 10.037 7.42131e-10H2.22269C0.997094 -3.15446e-05 0 1.0056 0 2.24168V8.53406C0 9.4738 0.732594 10.2441 1.652 10.2947V13.2304C1.652 13.2947 1.59994 13.3469 1.53597 13.3469C0.955063 13.3469 0.482437 13.8237 0.482437 14.4097V14.9372C0.482437 15.5232 0.955063 16 1.53597 16H10.9888C11.5697 16 12.0424 15.5232 12.0424 14.9372V14.4097C12.0424 13.8237 11.5697 13.3469 10.9888 13.3469C10.9249 13.3469 10.8728 13.2947 10.8728 13.2304V12.3209C11.2432 12.477 11.6283 12.5563 12.0226 12.5563C13.1187 12.5563 14.1369 11.9484 14.8897 10.8447C15.6057 9.79496 16 8.40779 16 6.93881C16 5.46984 15.6057 4.0827 14.8897 3.0329ZM0.9375 8.53406V2.24168C0.9375 1.5274 1.51403 0.946329 2.22269 0.946329H10.0371C10.5078 0.946329 10.8908 1.33226 10.8908 1.8066C10.8908 2.12461 10.634 2.38332 10.3183 2.38332H9.91153C9.11356 2.38332 8.46434 3.03817 8.46434 3.84305V3.99497C8.46434 4.19427 8.30331 4.35641 8.10538 4.35641C7.24753 4.35641 6.54962 5.06035 6.54962 5.92564V6.55942C6.54962 6.94878 6.23522 7.26556 5.84881 7.26556C5.46238 7.26556 5.14797 6.94881 5.14797 6.55945V5.66205C5.14797 4.94212 4.56734 4.35641 3.85366 4.35641C3.13997 4.35641 2.55934 4.94209 2.55934 5.66205V8.53403C2.55934 8.98456 2.19556 9.35112 1.74844 9.35112C1.30131 9.35112 0.9375 8.98459 0.9375 8.53406ZM10.9888 14.2933C11.0528 14.2933 11.1049 14.3455 11.1049 14.4098V14.9372C11.1049 15.0014 11.0528 15.0537 10.9888 15.0537H1.53594C1.47197 15.0537 1.41991 15.0014 1.41991 14.9372V14.4098C1.41991 14.3455 1.47197 14.2933 1.53594 14.2933C2.11684 14.2933 2.58947 13.8165 2.58947 13.2305V10.0926C2.58947 10.0883 2.58894 10.0842 2.58884 10.0799C3.12953 9.77963 3.49678 9.19935 3.49678 8.53406V5.66208C3.49678 5.464 3.65684 5.30281 3.85359 5.30281C4.05034 5.30281 4.21041 5.46397 4.21041 5.66208V6.55948C4.21041 7.47067 4.94537 8.21195 5.84875 8.21195C6.75213 8.21195 7.48706 7.47064 7.48706 6.55945V5.92567C7.48706 5.5822 7.76441 5.30281 8.10531 5.30281C8.82019 5.30281 9.40178 4.71613 9.40178 3.995V3.84308C9.40178 3.55999 9.63041 3.32971 9.91147 3.32971H9.93525V13.2304C9.93528 13.8165 10.4079 14.2933 10.9888 14.2933ZM10.8728 6.13885C10.8728 5.22827 11.5253 4.52714 12.0225 4.52714C12.596 4.52714 13.2349 5.51757 13.2349 6.93881C13.2349 8.36006 12.596 9.35049 12.0225 9.35049C11.4355 9.35049 10.8728 8.61873 10.8728 7.83287C10.866 7.80095 10.8728 6.92872 10.8728 6.13885ZM14.1175 10.3081C13.5449 11.1476 12.8009 11.61 12.0226 11.61C11.6504 11.61 11.2859 11.5051 10.9393 11.2983C10.9177 11.2854 10.8954 11.2751 10.8728 11.2661V9.79613C11.2055 10.1175 11.5995 10.2969 12.0226 10.2969C13.2281 10.2969 14.1724 8.82185 14.1724 6.93884C14.1724 5.05584 13.2281 3.58081 12.0226 3.58081C11.5998 3.58081 11.2058 3.75879 10.8728 4.08074V3.2229C11.2858 3.05779 11.6098 2.71419 11.751 2.28679C11.8407 2.27429 11.932 2.26773 12.0226 2.26773C12.8009 2.26773 13.5449 2.73009 14.1175 3.56964C14.7269 4.46304 15.0625 5.65959 15.0625 6.93881C15.0625 8.21804 14.7269 9.41459 14.1175 10.3081Z" fill="white"/>
<path d="M4.03687 10.4731C3.77799 10.4731 3.56812 10.685 3.56812 10.9463V12.8766C3.56812 13.1379 3.77799 13.3498 4.03687 13.3498C4.29574 13.3498 4.50562 13.1379 4.50562 12.8766V10.9463C4.50562 10.685 4.29574 10.4731 4.03687 10.4731Z" fill="white"/>
<path d="M6.26245 8.71851C6.00358 8.71851 5.7937 8.93036 5.7937 9.19169V12.8767C5.7937 13.138 6.00358 13.3498 6.26245 13.3498C6.52133 13.3498 6.7312 13.138 6.7312 12.8767V9.19169C6.7312 8.93036 6.52136 8.71851 6.26245 8.71851Z" fill="white"/>
<path d="M8.48804 6.83545C8.22916 6.83545 8.01929 7.04731 8.01929 7.30863V12.8767C8.01929 13.1381 8.22916 13.3499 8.48804 13.3499C8.74691 13.3499 8.95679 13.1381 8.95679 12.8767V7.30863C8.95679 7.04728 8.74691 6.83545 8.48804 6.83545Z" fill="white"/>
</svg>
