<svg width="17" height="18" viewBox="0 0 17 18" fill="none" xmlns="http://www.w3.org/2000/svg">
<path d="M8.50421 7.9254C8.58885 7.9254 8.67188 7.89129 8.73174 7.83111C8.79157 7.77125 8.82604 7.68854 8.82604 7.60357C8.82604 7.51893 8.7916 7.4359 8.73174 7.37604C8.67188 7.31617 8.58885 7.28174 8.50421 7.28174C8.41956 7.28174 8.33653 7.31617 8.27667 7.37604C8.21649 7.4359 8.18237 7.51893 8.18237 7.60357C8.18237 7.68854 8.21649 7.77125 8.27667 7.83111C8.33653 7.89129 8.41956 7.9254 8.50421 7.9254Z" fill="white" stroke="white" stroke-width="0.2"/>
<path d="M10.0771 8.14255L9.91846 8.05092C9.76449 7.962 9.56769 8.01478 9.4788 8.16868C9.39036 8.32184 9.44214 8.51752 9.59434 8.60702V9.87057L8.50011 10.5023L7.40587 9.87057V8.60705L7.40983 8.60477C7.56376 8.51588 7.61648 8.31907 7.52762 8.16511C7.43873 8.01118 7.24187 7.95846 7.08797 8.04732L6.92312 8.14255C6.82355 8.20006 6.76221 8.3063 6.76221 8.42126V10.0564C6.76221 10.1714 6.82355 10.2776 6.92312 10.3351L8.33919 11.1527C8.38898 11.1814 8.44453 11.1958 8.50011 11.1958C8.55569 11.1958 8.61124 11.1814 8.66102 11.1527L10.0771 10.3351C10.1767 10.2776 10.238 10.1714 10.238 10.0564V8.42126C10.238 8.30627 10.1767 8.20003 10.0771 8.14255Z" fill="white" stroke="white" stroke-width="0.2"/>
<path d="M15.8392 12.3614L14.6634 11.6825L15.1476 11.5528C15.23 11.5307 15.3003 11.4768 15.343 11.4028C15.3857 11.3289 15.3972 11.2411 15.3751 11.1586L15.0419 9.91517C14.9959 9.7435 14.8194 9.64161 14.6478 9.6876L12.2984 10.3171L11.6674 9.95279V8.5251L12.2984 8.16079L14.6478 8.79029C14.8194 8.83632 14.9959 8.73439 15.0419 8.56273L15.3751 7.31926C15.3972 7.23681 15.3857 7.14895 15.343 7.07505C15.3003 7.00116 15.23 6.94719 15.1476 6.92511L14.6634 6.79538L15.8392 6.11654C15.9131 6.07386 15.9671 6.00357 15.9892 5.92112C16.0113 5.83867 15.9997 5.7508 15.957 5.67691L15.3133 4.56205C15.2244 4.40812 15.0277 4.3554 14.8737 4.44426L13.6979 5.1231L13.8276 4.63894C13.8736 4.46727 13.7718 4.29078 13.6001 4.24479L12.3566 3.91159C12.2742 3.88951 12.1863 3.90104 12.1124 3.94374C12.0385 3.98642 11.9845 4.05671 11.9624 4.13916L11.333 6.48848L10.7019 6.85283L9.46556 6.13903V5.4104L11.1854 3.69056C11.2458 3.63021 11.2797 3.54834 11.2797 3.46299C11.2797 3.37764 11.2458 3.29576 11.1854 3.23542L10.2751 2.32515C10.1494 2.19947 9.94567 2.19947 9.81993 2.32515L9.46556 2.67952V1.32183C9.46556 1.14408 9.32145 1 9.14373 1H7.8564C7.67865 1 7.53457 1.14408 7.53457 1.32183V2.67952L7.18016 2.32512C7.11982 2.26477 7.03795 2.23085 6.9526 2.23085C6.86724 2.23085 6.78537 2.26477 6.72503 2.32512L5.81475 3.23539C5.68908 3.36106 5.68908 3.56485 5.81475 3.69053L7.53457 5.41037V6.13903L6.29821 6.85286L5.66719 6.48851L5.03769 4.13916C4.99167 3.9675 4.81527 3.86554 4.64351 3.91159L3.40004 4.24479C3.31758 4.2669 3.2473 4.3208 3.20462 4.39473C3.16195 4.46865 3.15036 4.55648 3.17247 4.63894L3.3022 5.12307L2.12642 4.44426C1.97255 4.3554 1.77568 4.40812 1.68679 4.56205L1.04313 5.67691C1.00045 5.75084 0.988865 5.83867 1.01097 5.92112C1.03308 6.00357 1.08699 6.07386 1.16092 6.11654L2.33673 6.79541L1.8526 6.92514C1.68093 6.97113 1.57904 7.14763 1.62503 7.31932L1.95823 8.56276C1.98034 8.64521 2.03424 8.7155 2.10817 8.75818C2.18213 8.80085 2.26992 8.81244 2.35238 8.79033L4.70169 8.16082L5.33271 8.52514V9.95276L4.70169 10.3171L2.35238 9.68756C2.26989 9.66546 2.18203 9.67704 2.10817 9.71972C2.03424 9.76239 1.9803 9.83268 1.95823 9.91513L1.62503 11.1586C1.57901 11.3303 1.6809 11.5067 1.8526 11.5527L2.33673 11.6825L1.16092 12.3614C1.08699 12.404 1.03305 12.4743 1.01097 12.5568C0.988865 12.6392 1.00045 12.7271 1.04313 12.801L1.68679 13.9158C1.77565 14.0698 1.97248 14.1225 2.12642 14.0336L3.30223 13.3548L3.1725 13.8389C3.15039 13.9214 3.16198 14.0092 3.20465 14.0831C3.24733 14.157 3.31762 14.211 3.40007 14.2331L4.64354 14.5663C4.81517 14.6123 4.9917 14.5104 5.03772 14.3387L5.66722 11.9893L6.29824 11.625L7.53457 12.3388V13.0675L5.81475 14.7873C5.68908 14.913 5.68908 15.1168 5.81475 15.2424L6.72503 16.1527C6.78537 16.2131 6.86724 16.247 6.9526 16.247C7.03795 16.247 7.11982 16.2131 7.18016 16.1527L7.53457 15.7983V17.156C7.53457 17.3338 7.67865 17.4779 7.8564 17.4779H9.14373C9.32145 17.4779 9.46556 17.3338 9.46556 17.156V15.7983L9.81997 16.1527C9.94564 16.2785 10.1494 16.2785 10.2751 16.1527L11.1854 15.2425C11.2458 15.1821 11.2797 15.1003 11.2797 15.0149C11.2797 14.9296 11.2458 14.8477 11.1854 14.7873L9.46556 13.0675V12.3388L10.7019 11.625L11.333 11.9893L11.9624 14.3387C11.9846 14.4211 12.0385 14.4914 12.1124 14.5341C12.1863 14.5768 12.2741 14.5883 12.3566 14.5662L13.6001 14.233C13.7718 14.1871 13.8736 14.0106 13.8276 13.8389L13.6979 13.3547L14.8737 14.0336C15.0277 14.1225 15.2244 14.0697 15.3133 13.9158L15.957 12.8009C15.9997 12.727 16.0113 12.6392 15.9892 12.5567C15.9671 12.4743 15.9131 12.404 15.8392 12.3614ZM14.9168 13.3153L13.3469 12.4089C13.2342 12.3438 13.0934 12.353 12.9901 12.4323C12.8868 12.5115 12.8414 12.6451 12.8751 12.7709L13.1226 13.6946L12.5009 13.8612L11.9202 11.694C11.8981 11.6115 11.8442 11.5413 11.7703 11.4986L10.8629 10.9747C10.7633 10.9172 10.6406 10.9172 10.541 10.9747L8.98282 11.8743C8.88324 11.9318 8.8219 12.038 8.8219 12.153V13.2008C8.8219 13.2861 8.85582 13.368 8.91616 13.4284L10.5027 15.0149L10.0475 15.47L9.3713 14.7938C9.27929 14.7017 9.14084 14.6742 9.02057 14.724C8.90033 14.7738 8.8219 14.8912 8.8219 15.0214V16.8342H8.17823V15.0213C8.17823 14.8912 8.0998 14.7738 7.97956 14.724C7.8593 14.6742 7.72084 14.7017 7.62883 14.7938L6.9526 15.47L6.49746 15.0149L8.08397 13.4284C8.14431 13.368 8.17823 13.2861 8.17823 13.2008V12.153C8.17823 12.038 8.11689 11.9318 8.01732 11.8743L6.45913 10.9747C6.35955 10.9172 6.23687 10.9172 6.13729 10.9747L5.22992 11.4986C5.15599 11.5413 5.10205 11.6115 5.07998 11.694L4.49926 13.8612L3.87754 13.6946L4.12506 12.7709C4.15876 12.6451 4.11338 12.5115 4.01011 12.4323C3.90686 12.353 3.766 12.3438 3.65329 12.4089L2.08329 13.3153L1.76146 12.7579L3.33142 11.8514C3.44416 11.7863 3.50657 11.6597 3.48961 11.5307C3.47261 11.4016 3.37957 11.2955 3.25383 11.2618L2.33007 11.0143L2.49665 10.3926L4.66385 10.9733C4.7463 10.9955 4.83416 10.9838 4.90805 10.9412L5.81543 10.4173C5.915 10.3598 5.97635 10.2536 5.97635 10.1386V8.33934C5.97635 8.22435 5.915 8.11811 5.81543 8.06063L4.90805 7.53675C4.83416 7.49408 4.74636 7.48252 4.66385 7.5046L2.49665 8.08532L2.33007 7.4636L3.25383 7.21608C3.37957 7.18238 3.47261 7.07628 3.48961 6.94722C3.5066 6.81817 3.44416 6.69159 3.33142 6.62651L1.76146 5.72001L2.08329 5.16259L3.65326 6.069C3.76593 6.13404 3.9068 6.12487 4.01007 6.0456C4.11335 5.96637 4.15873 5.83271 4.12503 5.70697L3.87751 4.78321L4.49923 4.61663L5.07994 6.78386C5.10205 6.86631 5.15596 6.9366 5.22989 6.97927L6.13726 7.50315C6.23684 7.56063 6.35952 7.56063 6.4591 7.50315L8.01732 6.60353C8.11689 6.54606 8.17823 6.43982 8.17823 6.32483V5.27707C8.17823 5.19172 8.14431 5.10984 8.08397 5.0495L6.49746 3.46299L6.9526 3.00785L7.62883 3.68409C7.72084 3.77613 7.8593 3.80371 7.97956 3.75386C8.09983 3.70404 8.17823 3.5867 8.17823 3.45652V1.64367H8.8219V3.45652C8.8219 3.58667 8.90033 3.70404 9.02057 3.75386C9.14084 3.80368 9.27929 3.77613 9.3713 3.68409L10.0475 3.00785L10.5027 3.46299L8.91616 5.04953C8.85582 5.10987 8.8219 5.19175 8.8219 5.2771V6.32486C8.8219 6.43985 8.88324 6.54609 8.98282 6.60357L10.541 7.50319C10.6406 7.5607 10.7633 7.56067 10.8628 7.50319L11.7702 6.97931C11.8442 6.93663 11.8981 6.86634 11.9202 6.78389L12.5009 4.61666L13.1226 4.78325L12.8751 5.70704C12.8414 5.83278 12.8868 5.9664 12.99 6.04564C13.0934 6.1249 13.2341 6.13408 13.3469 6.06903L14.9168 5.16262L15.2386 5.72004L13.6687 6.62645C13.556 6.69152 13.4936 6.81813 13.5106 6.94716C13.5275 7.07621 13.6206 7.18232 13.7463 7.21601L14.6701 7.46354L14.5034 8.08525L12.3362 7.50454C12.2538 7.4824 12.166 7.49398 12.092 7.53669L11.1846 8.06057C11.0851 8.11805 11.0237 8.22429 11.0237 8.33928V10.1385C11.0237 10.2535 11.0851 10.3597 11.1846 10.4172L12.092 10.9411C12.166 10.9838 12.2539 10.9953 12.3362 10.9733L14.5034 10.3925L14.6701 11.0143L13.7463 11.2618C13.6206 11.2955 13.5275 11.4016 13.5106 11.5306C13.4936 11.6597 13.556 11.7863 13.6687 11.8513L15.2386 12.7578L14.9168 13.3153Z" fill="white" stroke="white" stroke-width="0.2"/>
</svg>
