<svg width="14" height="17" viewBox="0 0 14 17" fill="none" xmlns="http://www.w3.org/2000/svg">
<path d="M14 7.50323C14 5.8927 12.6368 4.58244 10.9612 4.58244C10.2226 4.58244 9.52555 4.83494 8.97913 5.28865C8.57925 4.95802 8.08921 4.72557 7.54977 4.63045C7.85351 2.38921 10.2568 2.13355 10.3638 2.12339C10.6487 2.09816 10.8585 1.85568 10.8322 1.58177C10.806 1.30788 10.5539 1.10618 10.2687 1.13148C10.2304 1.1349 9.31922 1.22056 8.40352 1.73931C7.91908 2.01376 7.38209 2.43954 6.9991 3.08559C6.75059 2.22795 6.30978 1.59608 5.90167 1.16179C5.16053 0.373109 4.36533 0.0511479 4.33185 0.0378339C4.19921 -0.0148911 4.0497 -0.0124341 3.91902 0.0447399C3.78834 0.101914 3.68823 0.208659 3.64253 0.339475C3.63013 0.375001 3.34096 1.22166 3.54815 2.28316C3.70419 3.08253 4.17112 4.13527 5.45077 4.99146C5.29847 5.07858 5.15466 5.17805 5.02094 5.28855C4.47431 4.83491 3.77725 4.58241 3.03884 4.58241C1.36321 4.58241 0 5.89266 0 7.5032C0 8.72746 0.787845 9.77804 1.90172 10.2116C1.68658 10.9806 1.80821 11.8042 2.25821 12.5028C2.65934 13.1255 3.27128 13.5676 3.97733 13.7666C3.89404 14.4919 4.09575 15.2177 4.56054 15.8196C5.13984 16.5698 6.02897 17 7 17C8.67563 17 10.0388 15.6897 10.0388 14.0792C10.0388 13.9675 10.0313 13.8616 10.0204 13.7659C10.778 13.5512 11.4275 13.0569 11.8179 12.3782C12.2024 11.7098 12.2966 10.9328 12.0972 10.2121C13.2117 9.77874 14 8.72789 14 7.50323ZM9.00252 7.5032C9.00252 8.5645 8.1042 9.42792 7 9.42792C5.8958 9.42792 4.99748 8.5645 4.99748 7.5032C4.99748 6.44189 5.8958 5.57847 7 5.57847C8.1042 5.57847 9.00252 6.44193 9.00252 7.5032ZM4.51287 1.29188C5.13473 1.73174 6.04963 2.6437 6.15326 4.24507C4.65101 3.29463 4.46475 2.03903 4.51287 1.29188ZM1.03632 7.50323C1.03632 6.44193 1.93464 5.5785 3.03884 5.5785C3.53237 5.5785 3.99778 5.75006 4.36042 6.05731C4.10649 6.48389 3.96116 6.97754 3.96116 7.50323C3.96116 8.02892 4.10649 8.52257 4.36042 8.94915C3.99778 9.25637 3.53237 9.42796 3.03884 9.42796C1.93464 9.42796 1.03632 8.56454 1.03632 7.50323ZM3.13933 11.9785C2.8332 11.5033 2.75713 10.941 2.91717 10.4215C2.95756 10.423 2.99808 10.424 3.03884 10.424C3.77725 10.424 4.47435 10.1715 5.02097 9.71784C5.35688 9.99555 5.75648 10.2039 6.19547 10.3199C6.04869 10.9397 6.11709 11.5909 6.39551 12.1761C6.01747 12.6266 5.45353 12.8889 4.83927 12.8889C4.77253 12.8889 4.70642 12.8858 4.64099 12.8796C4.64068 12.8796 4.64037 12.8796 4.64006 12.8795C4.02234 12.8213 3.47123 12.4938 3.13933 11.9785ZM7 16.004C6.36031 16.004 5.77448 15.7204 5.3927 15.226C5.08792 14.8313 4.95489 14.3558 5.00747 13.8803C5.77279 13.8408 6.4768 13.532 7.00194 13.018C7.52963 13.5279 8.24086 13.8384 8.99122 13.8799C8.99799 13.9418 9.00255 14.009 9.00255 14.0792C9.00252 15.1405 8.1042 16.004 7 16.004ZM10.9109 11.8963C10.5878 12.4581 10.0229 12.8165 9.36043 12.8795C9.36025 12.8795 9.36005 12.8795 9.35987 12.8795C9.35956 12.8795 9.35925 12.8795 9.35894 12.8796C8.59352 12.9529 7.8418 12.5904 7.4441 11.956C7.15034 11.4863 7.08118 10.9282 7.24153 10.4148C7.90232 10.3646 8.50429 10.1104 8.97913 9.71778C9.52555 10.1715 10.2226 10.424 10.9612 10.424C11.0021 10.424 11.0428 10.423 11.0833 10.4214C11.2353 10.9106 11.1774 11.4331 10.9109 11.8963ZM10.9612 9.42796C10.4675 9.42796 10.0021 9.25637 9.63961 8.94908C9.89351 8.5225 10.0388 8.02889 10.0388 7.50323C10.0388 6.97757 9.89351 6.48396 9.63961 6.05738C10.0021 5.75013 10.4675 5.5785 10.9611 5.5785C12.0653 5.5785 12.9636 6.44193 12.9636 7.50323C12.9636 8.56454 12.0654 9.42796 10.9612 9.42796Z" fill="white"/>
</svg>
